<?xml version="1.0" encoding="iso-8859-1"?>
<!-- Generator: Adobe Illustrator 19.0.0, SVG Export Plug-In . SVG Version: 6.00 Build 0)  -->
<svg version="1.1" id="Layer_1" xmlns="http://www.w3.org/2000/svg" xmlns:xlink="http://www.w3.org/1999/xlink" x="0px" y="0px"
	 viewBox="0 0 512 512" style="enable-background:new 0 0 512 512;" xml:space="preserve">
<g>
	<path style="fill:#4C1B27;" d="M205.973,512h-44.256c-19.628,0-35.597-15.968-35.597-35.596V359.994
		c0-7.969,6.461-14.431,14.431-14.431s14.431,6.462,14.431,14.431v116.411c0,3.713,3.02,6.733,6.735,6.733h44.256
		c3.713,0,6.735-3.02,6.735-6.733v-36.56c0-7.969,6.461-14.431,14.431-14.431c7.97,0,14.431,6.462,14.431,14.431v36.56
		C241.57,496.032,225.6,512,205.973,512z"/>
	<path style="fill:#4C1B27;" d="M350.283,512h-44.256c-19.628,0-35.597-15.968-35.597-35.596v-36.56
		c0-7.969,6.461-14.431,14.431-14.431c7.97,0,14.431,6.462,14.431,14.431v36.56c0,3.713,3.02,6.733,6.735,6.733h44.256
		c3.713,0,6.735-3.02,6.735-6.733V359.994c0-7.969,6.461-14.431,14.431-14.431c7.97,0,14.431,6.462,14.431,14.431v116.411
		C385.88,496.032,369.911,512,350.283,512z"/>
	<path style="fill:#4C1B27;" d="M357.018,165.655c-7.97,0-14.431-6.462-14.431-14.431V38.001c0-5.039-4.1-9.139-9.139-9.139H178.554
		c-5.039,0-9.139,4.1-9.139,9.139v113.223c0,7.969-6.461,14.431-14.431,14.431s-14.431-6.462-14.431-14.431V38.001
		C140.552,17.047,157.598,0,178.554,0h154.893c20.955,0,38.001,17.047,38.001,38.001v113.223
		C371.449,159.193,364.987,165.655,357.018,165.655z"/>
	<path style="fill:#4C1B27;" d="M428.117,332.667c-7.97,0-14.431-6.462-14.431-14.431V237.81c0-7.374-6-13.376-13.376-13.376
		h-43.293c-7.97,0-14.431-6.462-14.431-14.431c0-7.969,6.461-14.431,14.431-14.431h43.293c23.29,0,42.238,18.948,42.238,42.238
		v80.426C442.548,326.206,436.087,332.667,428.117,332.667z"/>
	<path style="fill:#4C1B27;" d="M83.883,332.667c-7.97,0-14.431-6.462-14.431-14.431V237.81c0-23.29,18.948-42.238,42.238-42.238
		h43.293c7.97,0,14.431,6.462,14.431,14.431c0,7.969-6.461,14.431-14.431,14.431H111.69c-7.376,0-13.376,6-13.376,13.376v80.426
		C98.314,326.206,91.854,332.667,83.883,332.667z"/>
</g>
<path style="fill:#D46366;" d="M344.363,392.944H167.637c-14.959,0-27.086-12.126-27.086-27.086V210.003h230.897v155.855
	C371.449,380.818,359.323,392.944,344.363,392.944z"/>
<g>
	<path style="fill:#4C1B27;" d="M344.363,407.375H167.637c-22.892,0-41.517-18.623-41.517-41.517V210.003
		c0-7.969,6.461-14.431,14.431-14.431h230.897c7.97,0,14.431,6.462,14.431,14.431v155.855
		C385.88,388.752,367.255,407.375,344.363,407.375z M154.984,224.434v141.424c0,6.977,5.677,12.655,12.655,12.655h176.727
		c6.977,0,12.655-5.677,12.655-12.655V224.434L154.984,224.434L154.984,224.434z"/>
	<path style="fill:#4C1B27;" d="M385.88,146.566c-23.872,0-43.293-19.421-43.293-43.293S362.008,59.98,385.88,59.98
		s43.293,19.421,43.293,43.293S409.752,146.566,385.88,146.566z M385.88,88.842c-7.957,0-14.431,6.474-14.431,14.431
		s6.474,14.431,14.431,14.431s14.431-6.474,14.431-14.431S393.837,88.842,385.88,88.842z"/>
	<path style="fill:#4C1B27;" d="M126.121,146.566c-23.872,0-43.293-19.421-43.293-43.293S102.25,59.98,126.121,59.98
		s43.293,19.421,43.293,43.293S149.993,146.566,126.121,146.566z M126.121,88.842c-7.957,0-14.431,6.474-14.431,14.431
		s6.474,14.431,14.431,14.431c7.957,0,14.431-6.474,14.431-14.431S134.079,88.842,126.121,88.842z"/>
	<path style="fill:#4C1B27;" d="M227.139,117.704h-28.862c-7.97,0-14.431-6.462-14.431-14.431s6.461-14.431,14.431-14.431h28.862
		c7.97,0,14.431,6.462,14.431,14.431S235.107,117.704,227.139,117.704z"/>
	<path style="fill:#4C1B27;" d="M313.725,117.704h-28.862c-7.97,0-14.431-6.462-14.431-14.431s6.461-14.431,14.431-14.431h28.862
		c7.97,0,14.431,6.462,14.431,14.431S321.694,117.704,313.725,117.704z"/>
</g>
<g>
</g>
<g>
</g>
<g>
</g>
<g>
</g>
<g>
</g>
<g>
</g>
<g>
</g>
<g>
</g>
<g>
</g>
<g>
</g>
<g>
</g>
<g>
</g>
<g>
</g>
<g>
</g>
<g>
</g>
</svg>
